<svg width="33" height="102" viewBox="0 0 33 102" fill="none" xmlns="http://www.w3.org/2000/svg">
<path d="M10.7431 95.7647C14.0569 94.9863 17.2859 94.2937 20.9396 93.4289C20.6898 95.6554 19.3327 96.9428 17.8036 97.4601C13.2164 99.012 8.54393 100.479 3.78546 101.517C1.06636 102.123 -0.383632 100.157 0.460193 97.5015C1.80982 93.0466 3.41471 88.6766 4.93437 84.2213C5.01878 83.9642 5.10298 83.6216 5.27281 83.5356C5.8669 83.1061 6.54641 82.8476 7.22573 82.5036C7.48221 83.1022 8.07876 83.7001 7.99497 84.2139C7.74422 86.0124 7.32323 87.7256 6.98725 89.4386C6.81947 90.3807 6.56647 91.2374 6.99482 92.6061C8.01277 91.662 9.11573 90.7176 10.1337 89.7735C30.319 69.3501 34.4968 38.7773 20.7486 13.4695C18.9554 10.2206 16.8229 7.22939 14.8599 4.0665C14.1771 2.95521 13.5794 1.8437 12.8966 0.732403C13.066 0.475168 13.3206 0.303339 13.49 0.046104C14.2558 0.301105 15.2762 0.384277 15.7877 0.982326C17.5776 2.86147 19.3674 4.74062 20.9028 6.8772C36.2565 28.0718 36.9222 57.6057 22.354 80.4984C19.5589 84.8712 15.9974 88.7322 12.7763 92.7635C12.0983 93.6212 11.3348 94.3079 10.5714 95.0803C10.4868 95.2517 10.5725 95.5083 10.7431 95.7647Z" fill="url(#paint0_linear_297_45)"/>
<defs>
<linearGradient id="paint0_linear_297_45" x1="-0.015625" y1="0.0783691" x2="59.3937" y2="19.0937" gradientUnits="userSpaceOnUse">
<stop stop-color="#9FEDFF"/>
<stop offset="0.46695" stop-color="#C499FF"/>
<stop offset="1" stop-color="#FEA1A6"/>
</linearGradient>
</defs>
</svg>
