<svg width="142" height="84" viewBox="0 0 142 84" fill="none" xmlns="http://www.w3.org/2000/svg">
<path d="M127.221 71.5837C123.63 75.2494 120.215 78.8727 116.247 82.9091C119.314 84.3255 122.033 83.5804 123.894 82.0125C129.477 77.3086 135.017 72.4281 140.071 67.1027C142.976 64.0691 141.573 60.6646 137.489 59.6791C130.69 57.9412 123.802 56.5989 116.87 55.08C116.472 54.9882 115.965 54.8293 115.721 54.9811C114.704 55.4119 113.84 56.0864 112.866 56.6938C113.437 57.492 113.743 58.7281 114.471 59.0212C116.986 60.102 119.524 60.8967 121.995 61.8009C123.341 62.3201 124.643 62.6628 126.074 64.2838C124.062 64.8594 121.983 65.5444 119.97 66.12C77.8726 76.2045 35.1846 57.7217 13.2825 20.2326C10.4928 15.3836 8.30034 10.2979 5.75417 5.29706C4.85416 3.54887 3.88752 1.91016 2.98751 0.161965C2.52351 0.179604 2.10311 0.373821 1.6391 0.391458C1.37006 1.57807 0.680613 2.9589 1.05246 4.0855C2.0783 7.86084 3.10414 11.6362 4.66063 15.2844C20.005 51.6325 57.5716 75.5502 98.4681 74.6373C106.29 74.447 114.049 72.8687 121.763 71.8625C123.399 71.6577 124.88 71.2093 126.472 70.8279C126.759 70.8527 127.023 71.1635 127.221 71.5837Z" fill="url(#paint0_linear_297_45)"/>
<defs>
<linearGradient id="paint0_linear_297_45" x1="12.2256" y1="-17" x2="-9.63785" y2="74.4598" gradientUnits="userSpaceOnUse">
<stop stop-color="#9FEDFF"/>
<stop offset="0.46695" stop-color="#C499FF"/>
<stop offset="1" stop-color="#FEA1A6"/>
</linearGradient>
</defs>
</svg>
