<svg width="34" height="35" viewBox="0 0 34 35" fill="none" xmlns="http://www.w3.org/2000/svg">
<path d="M17.1499 21.3676L32.0221 5.04356L33.9855 6.83238L17.2861 25.1618L8.1825 16.5077L10.0128 14.5825L17.1499 21.3676ZM32.9541 11.8652L30.8828 14.1459C31.1834 15.3005 31.3438 16.5111 31.3438 17.7585C31.3438 25.6676 24.9091 32.1023 17 32.1023C9.09091 32.1023 2.65625 25.6676 2.65625 17.7585C2.65625 9.84946 9.09091 3.41479 17 3.41479C20.664 3.41479 24.0108 4.79636 26.549 7.06506L28.3396 5.09337C25.218 2.2916 21.2269 0.758545 17 0.758545C12.4592 0.758545 8.19002 2.52687 4.97917 5.73772C1.76833 8.94856 0 13.2178 0 17.7585C0 22.2993 1.76833 26.5685 4.97917 29.7794C8.19002 32.9902 12.4592 34.7585 17 34.7585C21.5408 34.7585 25.81 32.9902 29.0208 29.7794C32.2317 26.5685 34 22.2993 34 17.7585C34 15.715 33.6407 13.727 32.9541 11.8652Z" fill="url(#paint0_linear_2_4175)"/>
<defs>
<linearGradient id="paint0_linear_2_4175" x1="0" y1="0.758545" x2="34" y2="34.7585" gradientUnits="userSpaceOnUse">
<stop stop-color="#9FEDFF"/>
<stop offset="0.46695" stop-color="#C499FF"/>
<stop offset="1" stop-color="#FEA1A6"/>
</linearGradient>
</defs>
</svg>
