<svg width="14" height="15" viewBox="0 0 14 15" fill="none" xmlns="http://www.w3.org/2000/svg">
<path fill-rule="evenodd" clip-rule="evenodd" d="M3 14.9014H0V5.90137H3V14.9014Z" fill="white"/>
<path fill-rule="evenodd" clip-rule="evenodd" d="M1.49108 3.90137H1.47404C0.578773 3.90137 0 3.23439 0 2.40085C0 1.54967 0.5964 0.901367 1.50865 0.901367C2.42091 0.901367 2.98269 1.54967 3 2.40085C3 3.23439 2.42091 3.90137 1.49108 3.90137Z" fill="white"/>
<path fill-rule="evenodd" clip-rule="evenodd" d="M13.9999 14.9011H11.0519V10.1967C11.0519 9.01507 10.6253 8.20875 9.55814 8.20875C8.74368 8.20875 8.25855 8.75233 8.04549 9.27735C7.96754 9.46551 7.94841 9.72767 7.94841 9.99047V14.9014H5C5 14.9014 5.03886 6.9332 5 6.10808H7.94841V7.35358C8.33968 6.75485 9.04046 5.90137 10.6057 5.90137C12.5456 5.90137 14 7.15842 14 9.85933L13.9999 14.9011Z" fill="white"/>
</svg>
