<svg width="200" height="146" viewBox="0 0 200 146" fill="none" xmlns="http://www.w3.org/2000/svg">
<path opacity="0.2" d="M190.684 71.3154C168.469 67.0482 148.764 56.129 135.209 40.6916L130.189 36.2988L130.942 43.0762C132.95 50.2302 135.335 57.2586 137.97 63.9105C127.051 67.1737 115.63 68.5543 103.832 68.1777C91.7836 67.8012 80.1114 65.4166 68.8157 61.1493C44.7183 52.2383 22.5034 34.4162 6.31294 10.9463L0.288574 4.79639L1.79467 13.0799C10.9567 41.4446 27.9003 66.1696 50.7426 84.7448C74.9656 104.449 106.343 116.122 139.226 117.628H139.351L143.869 117.251C144.12 117.251 144.497 117.251 144.873 117.126C143.242 123.903 141.359 130.806 138.849 138.086L136.339 145.616L142.74 140.847C166.712 123.15 184.659 99.6802 193.445 74.7041L194.449 71.943L190.684 71.3154Z" fill="#231F20"/>
<path d="M195.704 66.5461C173.489 62.2789 153.784 51.3597 140.229 35.9223L135.209 31.5295L135.962 38.3069C137.97 45.4608 140.355 52.4893 142.99 59.1412C132.071 62.4044 120.65 63.785 108.852 63.4084C96.8037 63.0319 85.1315 60.6473 73.8358 56.38C49.7383 47.469 27.5234 29.6469 11.333 6.17695L5.30859 0.152588L6.81469 8.43609C16.1023 36.8008 32.9203 61.5258 55.7627 79.9754C79.9856 99.6801 111.363 111.352 144.246 112.858H144.371L148.889 112.482C149.14 112.482 149.517 112.482 149.893 112.356C148.262 119.134 146.379 126.037 143.869 133.316L141.359 140.847L147.76 136.077C171.732 118.381 189.679 94.9109 198.465 69.9348L199.469 67.1737L195.704 66.5461Z" fill="white"/>
<path d="M146.054 133.512C148.816 125.228 151.075 117.07 152.957 108.787C152.957 108.787 152.455 108.912 151.577 109.038C150.698 109.163 149.694 109.289 148.564 109.414C146.305 109.665 144.172 109.791 144.172 109.791C111.54 108.285 80.6649 96.6125 57.1949 77.5353C33.5995 58.4581 17.5345 33.3566 9 7C25.4415 30.7209 48.0329 49.0451 72.6324 58.0816C97.1064 67.2437 123.588 67.3692 145.929 60.0897C142.791 52.5593 140.155 44.7778 137.896 36.9963C151.075 52.0572 171.156 64.106 195.755 68.6243C187.597 92.0942 170.528 115.439 146.054 133.512Z" fill="url(#paint0_linear_2_4090)"/>
<defs>
<linearGradient id="paint0_linear_2_4090" x1="9" y1="7" x2="126.488" y2="180.435" gradientUnits="userSpaceOnUse">
<stop stop-color="#9FEDFF"/>
<stop offset="0.46695" stop-color="#C499FF"/>
<stop offset="1" stop-color="#FEA1A6"/>
</linearGradient>
</defs>
</svg>
