<svg width="98" height="124" viewBox="0 0 98 124" fill="none" xmlns="http://www.w3.org/2000/svg">
<path opacity="0.2" d="M41.2042 113.182C40.515 100.317 35.8783 88.3535 28.2162 79.5106L26.1259 76.338L29.8919 77.2873C33.7732 78.9739 37.5546 80.8632 41.1042 82.8651C43.7903 76.9562 45.4529 70.6185 46.1532 63.9323C46.873 57.1045 46.4304 50.3338 44.8965 43.6299C41.7327 29.3431 33.3951 15.4292 21.4045 4.47768L18.4004 0.602539L22.958 2.09325C38.2543 9.45761 50.8948 20.9312 59.6089 35.2574C68.8534 50.4501 73.0121 69.058 71.3178 87.7293L71.3081 87.8001L70.746 90.3205C70.7266 90.4621 70.6975 90.6746 70.5975 90.8773C74.548 90.481 78.5888 89.9528 82.8905 89.0996L87.3339 88.2658L84.1475 91.5086C72.3073 103.666 57.6755 111.977 42.9027 115.002L41.267 115.355L41.2042 113.182Z" fill="#231F20"/>
<path d="M38.1251 115.646C37.4359 102.781 32.7991 90.8172 25.1371 81.9743L23.0468 78.8017L26.8128 79.7509C30.6941 81.4375 34.4755 83.3269 38.025 85.3287C40.7111 79.4199 42.3738 73.0822 43.0741 66.396C43.7938 59.5682 43.3513 52.7975 41.8174 46.0936C38.6536 31.8068 30.3159 17.8929 18.3253 6.94136L15.3921 3.07593L19.9497 4.56664C35.2363 12.0018 47.8865 23.4046 56.5297 37.7211C65.7743 52.9138 69.9329 71.5217 68.2387 90.1929L68.229 90.2638L67.6669 92.7841C67.6475 92.9258 67.6184 93.1382 67.5184 93.341C71.4689 92.9447 75.5096 92.4165 79.8114 91.5633L84.2547 90.7295L81.0684 93.9723C69.2282 106.13 54.5963 114.441 39.8235 117.466L38.1878 117.819L38.1251 115.646Z" fill="white"/>
<path d="M80.0514 92.9673C75.1637 93.8845 70.3857 94.5281 65.5659 94.9495C65.5659 94.9495 65.6756 94.6759 65.8144 94.1899C65.9532 93.7039 66.1017 93.147 66.2599 92.5194C66.5763 91.264 66.8122 90.0698 66.8122 90.0698C68.487 71.5402 64.2896 53.2156 55.3408 38.4964C46.4018 23.7063 33.4808 12.6994 19.269 5.84448C31.3819 16.9571 39.9737 31.1223 43.1694 45.7021C46.4458 60.2207 44.4677 75.1733 38.6317 87.216C34.6253 84.8629 30.4384 82.7736 26.2224 80.8969C33.7012 89.4981 38.9462 101.761 39.5925 115.992C53.4669 113.204 67.9599 105.379 80.0514 92.9673Z" fill="url(#paint0_linear_2_4090)"/>
<defs>
<linearGradient id="paint0_linear_2_4090" x1="19.269" y1="5.84448" x2="108.042" y2="85.5571" gradientUnits="userSpaceOnUse">
<stop stop-color="#9FEDFF"/>
<stop offset="0.46695" stop-color="#C499FF"/>
<stop offset="1" stop-color="#FEA1A6"/>
</linearGradient>
</defs>
</svg>
