<svg width="13" height="12" viewBox="0 0 13 12" fill="none" xmlns="http://www.w3.org/2000/svg">
<path fill-rule="evenodd" clip-rule="evenodd" d="M6.31224 3.82754L6.34042 4.30332L5.87076 4.24506C4.16119 4.02174 2.66767 3.26437 1.39959 1.99238L0.779637 1.36125L0.619952 1.82732C0.281797 2.86627 0.497841 3.96348 1.20233 4.70142C1.57806 5.10923 1.49352 5.16749 0.84539 4.92475C0.619952 4.84707 0.422695 4.78881 0.403908 4.81794C0.338156 4.88591 0.563593 5.7695 0.742064 6.11906C0.986288 6.60455 1.48413 7.08033 2.02893 7.36191L2.4892 7.58524L1.9444 7.59495C1.41838 7.59495 1.39959 7.60466 1.45595 7.80856C1.64381 8.4397 2.38588 9.10968 3.21248 9.40097L3.79486 9.60488L3.28763 9.91559C2.53617 10.3622 1.65321 10.6147 0.770244 10.6341C0.347549 10.6438 0 10.6827 0 10.7118C0 10.8089 1.14597 11.3526 1.81289 11.5663C3.81365 12.1974 6.19013 11.9255 7.97484 10.8477C9.24293 10.0807 10.511 8.55622 11.1028 7.08033C11.4222 6.29383 11.7415 4.85678 11.7415 4.16738C11.7415 3.72073 11.7697 3.66247 12.2957 3.12843C12.6057 2.81772 12.8969 2.47787 12.9532 2.38078C13.0472 2.19629 13.0378 2.19629 12.5587 2.36136C11.7603 2.65265 11.6476 2.61381 12.0421 2.17687C12.3333 1.86616 12.6808 1.30299 12.6808 1.13792C12.6808 1.10879 12.5399 1.15734 12.3803 1.24473C12.2112 1.34183 11.8355 1.48747 11.5537 1.57486L11.0464 1.73993L10.5862 1.41951C10.3325 1.24473 9.9756 1.05053 9.78773 0.992273C9.30868 0.856336 8.57601 0.875755 8.14392 1.03111C6.96977 1.46805 6.2277 2.59439 6.31224 3.82754Z" fill="white"/>
</svg>
